<svg width="277" height="64" fill="none" xmlns="http://www.w3.org/2000/svg"><g clip-path="url(#a)"><path d="M93.726 4.815H87.78v11.691c0 1.022 0 3.155.11 3.885h-4.633c.128-1.295.182-4.797.182-6.566v-9.01h-6.036c0-1.076.109-2.499.109-3.757a223.3 223.3 0 0 0 8.19.146c3.082 0 5.744 0 8.353-.146a32.21 32.21 0 0 0-.238 3.757h-.09Zm4.213 5.198c1.532 0 2.718 1.15 2.736 3.995 0 2.389-1.058 3.811-2.827 3.811s-2.736-1.203-2.736-4.012c0-2.335 1.113-3.794 2.846-3.794h-.019Zm-.237 10.852a6.823 6.823 0 0 0 6.968-7.295 2.252 2.252 0 0 0 0-.493 6.364 6.364 0 0 0-4.148-5.735 6.368 6.368 0 0 0-2.455-.393 6.84 6.84 0 0 0-6.949 7.296v.437a6.402 6.402 0 0 0 6.584 6.183Zm13.169-.492a25.667 25.667 0 0 1-.128-2.645V10.05c-.009-.969.033-1.937.128-2.9-.821 0-3.429.237-4.432.237.149 1.54.216 3.086.2 4.633v3.884a40.41 40.41 0 0 1-.2 4.469h4.432Zm-2.08-15.412a2.297 2.297 0 0 0 2.299-2.28 2.223 2.223 0 0 0-2.353-2.134h-.11a2.333 2.333 0 0 0-2.334 2.317v.09a2.203 2.203 0 0 0 1.513 1.94c.276.09.568.126.858.103l.127-.036Zm12.859 12.074a3.81 3.81 0 0 1-1.933.584c-.876 0-1.405-.31-1.405-1.678v-5.69h3.247V7.313h-3.356V3.429l-3.812 1.277-.237 2.663h-1.642l-.638 2.954h2.389v6.055c0 3.32 1.55 4.506 4.304 4.506a6.346 6.346 0 0 0 3.046-.767l.037-3.082Zm12.949-12.402a26.74 26.74 0 0 1 .146-2.773h-9.411c0 .84 0 2.098-.091 2.773h9.356Zm1.915 15.794a42.24 42.24 0 0 1-.182-4.54v-5.582a20.986 20.986 0 0 1 .164-3.028c-1.295.11-2.918.183-4.45.183.109 1.258.164 2.954.164 4.505v3.155a2.72 2.72 0 0 1-2.535 2.535c-1.514 0-2.006-.875-2.006-2.717v-4.633c-.022-1.01.021-2.022.127-3.028-1.276.11-2.845.183-4.377.183 0 1.258.128 2.954.128 4.505v3.976c0 3.246 1.441 4.96 4.304 4.96a5.286 5.286 0 0 0 4.414-2.79l.438 2.298 3.811.018Zm22.489-15.575c.012-1.257.098-2.511.255-3.758a235.32 235.32 0 0 1-8.371.146c-3.083 0-5.6 0-8.19-.146 0 1.259 0 2.681-.109 3.758h6.037v9.01c0 1.823 0 5.27-.201 6.565h4.688c-.11-.729-.11-2.863-.11-3.884V4.852h6.001Zm1.879 7.842a2.898 2.898 0 0 1 2.827-2.809c1.495 0 2.17.949 2.334 2.663l-5.161.146Zm8.791.766c0-3.556-1.715-6.42-5.819-6.42a6.785 6.785 0 0 0-6.985 7.168 6.388 6.388 0 0 0 4.286 6.353c.866.3 1.787.41 2.699.323a9.736 9.736 0 0 0 5.253-1.533v-3.137a8.626 8.626 0 0 1-4.87 1.55 3.023 3.023 0 0 1-3.206-1.77 3.025 3.025 0 0 1-.259-1.275l7.606-.22 1.295-1.039Zm32.684-12.183h-4.542l-1.295 4.468-2.334 8.153L189.863.93l-2.663.256c-.328 1.057-1.149 3.392-1.495 4.486l-2.7 8.299-3.885-12.767-4.687.219c.657 1.641 1.423 3.83 1.988 5.471l4.852 13.862h2.827c.601-1.824 1.203-3.356 1.714-4.906l2.59-7.57 4.395 12.549 2.809-.237c.474-1.587.967-3.028 1.824-5.344l4.925-13.971Zm13.733 19.169c0-.712-.109-1.824-.109-2.809v-6c0-2.882-1.24-4.633-3.94-4.633a5.777 5.777 0 0 0-4.705 2.845V4.213c0-.492 0-2.918.109-3.648-.821.165-3.429.438-4.395.493.109 1.185.164 2.809.164 4.377v10.378c0 1.605 0 3.374-.164 4.542h4.395a20.726 20.726 0 0 1-.109-2.718v-4.724a2.914 2.914 0 0 1 2.827-2.717c1.313 0 1.714.93 1.714 2.498v3.028c0 1.569 0 3.465-.182 4.633l4.395.09Zm5.782-7.752a2.918 2.918 0 0 1 2.845-2.809c1.496 0 2.171.949 2.335 2.663l-5.18.146Zm8.809.748c0-3.556-1.696-6.42-5.836-6.42a6.782 6.782 0 0 0-6.967 7.186 6.38 6.38 0 0 0 6.967 6.676 9.741 9.741 0 0 0 5.253-1.533l.091-3.137a8.81 8.81 0 0 1-4.87 1.55 3.03 3.03 0 0 1-3.465-3.045l7.587-.22 1.24-1.057Zm14.902 7.004c0-.712-.11-1.824-.11-2.809v-6c0-2.882-1.258-4.633-3.958-4.633a5.856 5.856 0 0 0-4.742 2.881l-.182-2.754c-.821.092-3.101.365-4.049.365.109 1.167.164 2.9.164 4.487v3.757c0 1.569 0 3.466-.164 4.633h4.377a22.137 22.137 0 0 1-.109-2.809v-4.633a2.935 2.935 0 0 1 2.845-2.717c1.295 0 1.696.93 1.696 2.498v3.028c.02 1.546-.04 3.093-.182 4.633l4.414.073Zm15.466 0a41.657 41.657 0 0 1-.201-4.523V10.34c-.012-1.004.031-2.009.128-3.009-1.277.11-2.9.182-4.432.182.11 1.259.164 2.955.164 4.506v3.136a2.696 2.696 0 0 1-2.535 2.536c-1.514 0-2.006-.876-2.006-2.736v-4.614a27.74 27.74 0 0 1 .127-3.01 53.58 53.58 0 0 1-4.377.182c0 1.259.146 2.955.146 4.506v3.976c0 3.246 1.441 4.96 4.286 4.96a5.288 5.288 0 0 0 4.414-2.79l.438 2.298 3.848-.018Zm9.302-4.505a2.206 2.206 0 0 1-2.243 2.334h-.238a1.53 1.53 0 0 1-1.422-1.623c0-1.149.857-2.006 3.027-2.006h.876v1.295Zm-7.642 1.149a3.657 3.657 0 0 0 1.182 2.703 3.644 3.644 0 0 0 2.794.945 4.616 4.616 0 0 0 3.976-2.116 2.556 2.556 0 0 0 2.79 2.116c.756 0 1.505-.142 2.207-.42l.201-2.462c-.26.108-.539.164-.821.164-.565 0-.784-.237-.784-1.003l.128-4.779c.091-3.392-1.605-5.216-5.363-5.216a10.944 10.944 0 0 0-5.362 1.386l.566 3.028a7.805 7.805 0 0 1 3.957-1.204c1.66 0 2.28.73 2.226 2.17v.384a6.624 6.624 0 0 0-1.004 0c-4.468 0-6.693 1.823-6.693 4.359" fill="#00AA9B"/><path d="M91.136 43.135c-1.295 0-2.845-.11-4.414-.11-1.568 0-3.228 0-4.596.11.11-.967.146-3.648.146-4.943v-4.414c0-1.313 0-3.903-.146-4.851.784 0 2.772 0 3.43-.11v11.654H91.354c-.11.909-.17 1.822-.182 2.737l-.037-.073Zm6.785-3.338v.11a1.624 1.624 0 0 1-1.641 1.623h-.256a1.131 1.131 0 0 1-1.04-1.186c0-.857.639-1.495 2.208-1.495h.656v.912l.073.036Zm-5.727.857a2.607 2.607 0 0 0 2.936 2.681 3.43 3.43 0 0 0 2.974-1.568 1.822 1.822 0 0 0 2.06 1.569 4.776 4.776 0 0 0 1.605-.274l.128-1.824a2.08 2.08 0 0 1-.602.128c-.419 0-.583-.183-.583-.748l.109-3.52c0-2.554-1.186-3.885-3.958-3.885a8.044 8.044 0 0 0-3.94 1.04l.402 2.17a6.055 6.055 0 0 1 2.918-.876c1.222 0 1.678.548 1.642 1.606v.291a3.65 3.65 0 0 0-.748 0c-3.283 0-4.943 1.313-4.943 3.247v-.037Zm20.446 2.48V36.66c0-2.134-.93-3.429-2.918-3.429a4.338 4.338 0 0 0-3.502 2.152l-.146-2.024c-.602 0-2.28.255-2.991.255.091.876.127 2.152.127 3.32v2.772c0 1.167 0 2.553-.127 3.429h3.246c-.04-.693-.04-1.387 0-2.08v-3.41a2.131 2.131 0 0 1 2.079-2.006c.985 0 1.295.674 1.295 1.824v2.225a30.67 30.67 0 0 1-.146 3.429l3.083.018Zm4.523-4.705c0-1.623.821-2.973 2.207-2.973a2.185 2.185 0 0 1 1.641.602v4.232a1.972 1.972 0 0 1-1.696.985c-1.204 0-2.17-.913-2.17-2.846h.018Zm3.867-4.596a3.795 3.795 0 0 0-2.08-.657 5.036 5.036 0 0 0-4.778 5.472 4.374 4.374 0 0 0 4.249 4.76 3.453 3.453 0 0 0 2.773-1.367l.146 1.02h2.881c0-.93-.127-2.188-.127-3.337V28.416c-.602.128-2.517.31-3.229.365V33.833h.165Zm13.186 9.302a28.932 28.932 0 0 1-.091-2.9v-8.372c0-.784 0-2.389.091-2.973-.675.11-2.681.11-3.465.11.109.948.146 3.538.146 4.833v4.45c0 1.313 0 3.885-.146 4.852h3.465Zm12.056 0V36.66c0-2.134-.912-3.429-2.9-3.429a4.341 4.341 0 0 0-3.502 2.152l-.146-2.024c-.601 0-2.279.255-2.991.255.091.876.128 2.152.128 3.32v2.772c0 1.167 0 2.553-.128 3.429h3.247a19.487 19.487 0 0 1 0-2.08v-3.41a2.17 2.17 0 0 1 2.097-2.006c1.003 0 1.295.674 1.295 1.824v2.225c0 1.149 0 2.28-.146 3.429l3.046.018Zm8.043-14.5a4.95 4.95 0 0 0-1.258-.164c-2.663 0-4.067 1.714-4.067 4.487v.51h-1.204l-.456 2.17h1.587v4.232c0 1.094 0 2.189-.128 3.283h3.228V35.73h2.371v-2.17h-2.371v-.657c0-1.259.511-1.915 1.605-1.915.31.002.617.052.912.146l-.219-2.499Zm5.472 6.858c1.149 0 2.025.839 2.043 2.936 0 1.824-.784 2.809-2.079 2.809-1.295 0-2.025-.876-2.025-2.955 0-1.732.821-2.79 2.098-2.79h-.037Zm-.146 7.988a5.05 5.05 0 0 0 4.844-3.311 5.041 5.041 0 0 0 .3-2.05v-.347a4.717 4.717 0 0 0-3.069-4.252 4.708 4.708 0 0 0-1.819-.29 5.056 5.056 0 0 0-3.742 1.567 5.045 5.045 0 0 0-1.384 3.814v.31c.019.62.16 1.23.416 1.794a4.694 4.694 0 0 0 2.636 2.469 4.711 4.711 0 0 0 1.818.296Zm13.169-10.213a3.943 3.943 0 0 0-3.447 2.334l-.183-2.261a33.02 33.02 0 0 1-3.009.346c.127 1.004.182 2.016.164 3.028v2.99a32.435 32.435 0 0 1-.128 3.43h3.247c-.08-.69-.111-1.385-.091-2.08v-2.972c0-1.697 1.641-2.207 3.173-2.007l.274-2.808Zm16.415 9.849a18.03 18.03 0 0 1 0-2.08v-4.395c0-2.116-.931-3.41-2.937-3.41a3.972 3.972 0 0 0-3.338 2.005 2.515 2.515 0 0 0-2.717-2.006 4.05 4.05 0 0 0-3.247 1.933l-.146-1.823c-.601 0-2.298.255-2.991.255 0 .875.11 2.152.11 3.32v2.772c0 1.167 0 2.553-.11 3.429h3.247c-.08-.69-.111-1.385-.091-2.08V37.39a1.824 1.824 0 0 1 1.823-1.824c.949 0 1.149.674 1.149 1.824v2.225c0 1.149.001 2.28-.127 3.429h3.246a20.028 20.028 0 0 1 0-2.08v-3.647a1.823 1.823 0 0 1 1.824-1.824c.949 0 1.186.675 1.186 1.824v2.225c0 1.167 0 2.553-.11 3.429l3.229.146Zm6.967-3.32v.11a1.621 1.621 0 0 1-1.623 1.623h-.201a1.13 1.13 0 0 1-1.058-1.186c0-.857.638-1.495 2.243-1.495h.639V39.797Zm-5.636.857c-.014.378.055.755.202 1.104a2.607 2.607 0 0 0 2.734 1.578 3.394 3.394 0 0 0 2.955-1.57 1.932 1.932 0 0 0 2.079 1.57 4.946 4.946 0 0 0 1.624-.329l.146-1.824c-.192.077-.396.12-.602.128-.42 0-.584-.182-.584-.748V37.08c0-2.554-1.186-3.904-3.94-3.904a8.151 8.151 0 0 0-3.957 1.076l.401 2.17a6.183 6.183 0 0 1 2.918-.874c1.24 0 1.696.547 1.66 1.605v.291a3.652 3.652 0 0 0-.748 0c-3.301 0-4.943 1.313-4.943 3.247l.055-.037Zm16.853.037c-.433.273-.93.424-1.441.438-.639 0-1.022-.237-1.022-1.24v-4.196h2.408v-2.17h-2.079v-2.9l-2.809.912-.182 1.951h-1.204l-.493 2.17h1.642v4.542c0 2.444 1.149 3.302 3.192 3.302a4.616 4.616 0 0 0 2.243-.566l-.255-2.243Zm4.632 2.48a17.317 17.317 0 0 1 0-1.933v-5.672a21.458 21.458 0 0 1 0-2.153c-.583 0-2.517.183-3.228.183 0 1.13.146 2.28.128 3.41v2.882c0 1.095 0 2.207-.128 3.302l3.228-.019Zm-1.495-11.363h.383a1.695 1.695 0 0 0 1.696-1.696 1.661 1.661 0 0 0-1.733-1.569h.037a1.716 1.716 0 0 0-1.715 1.715 1.62 1.62 0 0 0 .578 1.16 1.607 1.607 0 0 0 1.246.354l-.492.037Zm8.517 3.612c1.113 0 2.007.839 2.007 2.936 0 1.824-.803 2.809-2.098 2.809s-2.006-.875-2.006-2.955c0-1.732.784-2.79 2.097-2.79Zm-.182 7.988a5.03 5.03 0 0 0 4.85-3.308 5.036 5.036 0 0 0 .293-2.054V37.7a4.742 4.742 0 0 0-4.888-4.542 5.03 5.03 0 0 0-4.839 3.326 5.04 5.04 0 0 0-.286 2.055c-.018.108-.018.22 0 .328a4.707 4.707 0 0 0 4.87 4.541Zm16.232-.346v-6.475c0-2.134-.93-3.429-2.918-3.429a4.346 4.346 0 0 0-3.502 2.152l-.146-2.024c-.601 0-2.298.255-2.991.255 0 .876.11 2.152.11 3.32v2.772c0 1.167 0 2.553-.11 3.429h3.247a14.43 14.43 0 0 1 0-2.08v-3.41a2.17 2.17 0 0 1 2.097-2.006c.967 0 1.259.674 1.259 1.824v2.225c0 1.167 0 2.553-.128 3.429l3.082.018ZM82.363 58.31v-4.67c0-1.295 0-3.739-.09-4.705l1.987-.164 7.588 9.119v-3.994c0-1.295 0-3.885-.165-4.852h3.338c0 .584-.11 2.189-.11 2.973v11.381l-1.95.182-7.588-9.119v8.773H81.98c.128-.93.201-3.52.22-4.815l.163-.11Zm17.4-.748a2.192 2.192 0 0 1 2.079-2.061c1.077 0 1.605.656 1.733 1.951l-3.812.11Zm6.493.547c0-2.627-1.258-4.742-4.322-4.742a4.998 4.998 0 0 0-5.144 5.307 4.686 4.686 0 0 0 5.144 4.925 7.294 7.294 0 0 0 3.884-1.113V60.17a6.528 6.528 0 0 1-3.647 1.149 2.224 2.224 0 0 1-2.536-2.262l5.6-.164 1.021-.784Zm2.535 1.86c.44 1.091.8 2.213 1.076 3.356l2.134-.11 2.025-5.47.73 2.005c.51 1.35.948 2.627 1.24 3.648l2.115-.128 3.648-9.72h-2.882c-.145.528-.911 2.936-1.021 3.355l-.729 2.207-1.952-5.672-2.025.11-1.112 3.373-.784 2.207-1.824-5.69c-.329 0-2.7.2-3.028.2.401.876 1.003 2.536 1.441 3.648l.948 2.681Zm29.438-11.053c-1.386 0-2.973.11-5.472.11-2.499 0-3.502 0-5.471-.11 0 .876-.146 1.824-.256 2.663H134.016l-7.588 10.214.256 1.496c1.477-.11 3.647-.11 5.891-.11 1.951 0 4.268 0 5.471.11 0-.967.092-1.824.165-2.681H130.933l7.606-10.305-.31-1.386Zm4.012 8.555a2.19 2.19 0 0 1 2.08-2.061c1.076 0 1.605.656 1.732 1.951l-3.812.11Zm6.493.547c0-2.627-1.258-4.742-4.322-4.742a5.013 5.013 0 0 0-4.838 3.267 5.026 5.026 0 0 0-.306 2.04 4.703 4.703 0 0 0 1.446 3.639 4.708 4.708 0 0 0 3.698 1.286 7.297 7.297 0 0 0 3.885-1.113v-2.316a6.514 6.514 0 0 1-3.648 1.149 2.226 2.226 0 0 1-2.554-2.262l5.6-.164 1.039-.784Zm6.53 1.824v.182a1.599 1.599 0 0 1-1.678 1.55h-.182a1.093 1.093 0 0 1-1.04-1.185c0-.84.62-1.478 2.225-1.478h.638v.894l.037.037Zm-5.672.912a2.603 2.603 0 0 0 1.789 2.585c.358.117.737.156 1.111.114a3.429 3.429 0 0 0 2.936-1.587 1.932 1.932 0 0 0 2.079 1.569 4.944 4.944 0 0 0 1.624-.329l.145-1.824a1.82 1.82 0 0 1-.601.128c-.42 0-.584-.182-.584-.748v-3.52c0-2.535-1.186-3.885-3.958-3.885a8.096 8.096 0 0 0-3.939 1.04l.419 2.225a5.928 5.928 0 0 1 2.918-.875c1.222 0 1.696.547 1.642 1.605v.291a3.452 3.452 0 0 0-.73 0c-3.301 0-4.943 1.295-4.943 3.247l.092-.036Zm14.007 2.462c0-.657-.091-1.332-.091-2.007v-9.958c0-.346 0-2.152.091-2.663-.602.11-2.535.31-3.246.365 0 .875.127 2.08.127 3.228v7.679c0 1.185 0 2.498-.127 3.374l3.246-.018Zm7.022-3.338v.091a1.642 1.642 0 0 1-1.66 1.605h.018a1.11 1.11 0 0 1-1.039-1.185c0-.84.62-1.478 2.225-1.478h.657v.894l-.201.073Zm-5.453.839a2.627 2.627 0 0 0 2.918 2.7 3.429 3.429 0 0 0 2.936-1.587 1.832 1.832 0 0 0 .704 1.213 1.826 1.826 0 0 0 1.357.355 4.848 4.848 0 0 0 1.623-.328l.146-1.824a1.694 1.694 0 0 1-.601.128c-.42 0-.584-.183-.584-.748l.109-3.52c0-2.535-1.203-3.885-3.958-3.885a8.166 8.166 0 0 0-3.957 1.04l.437 2.225a5.876 5.876 0 0 1 2.919-.876c1.222 0 1.678.547 1.641 1.605v.292a3.652 3.652 0 0 0-.748 0c-3.301 0-4.942 1.295-4.942 3.247v-.037Zm20.445 2.48c0-.528-.091-1.367-.091-2.079v-4.432c0-2.134-.912-3.429-2.918-3.429a4.301 4.301 0 0 0-3.484 2.153l-.146-2.025c-.602 0-2.279.255-2.991.255 0 .858.128 2.153.128 3.32v2.772c0 1.167 0 2.554-.128 3.429h3.247c-.08-.69-.111-1.385-.091-2.08v-3.41a2.202 2.202 0 0 1 2.097-2.024c.985 0 1.295.693 1.295 1.824v2.225c0 1.167 0 2.553-.146 3.429l3.228.072Zm6.749-7.696a2.351 2.351 0 0 1 1.641.602v4.25a1.92 1.92 0 0 1-1.696.984c-1.204 0-2.17-.912-2.17-2.845-.073-1.678.729-3.028 2.152-3.028l.073.037Zm1.641-1.605a3.865 3.865 0 0 0-2.134-.657 5.032 5.032 0 0 0-4.778 5.472 4.377 4.377 0 0 0 4.268 4.76 3.537 3.537 0 0 0 2.772-1.368l.127 1.003h2.937c-.091-.912-.128-2.17-.128-3.337V48.46c-.602.109-2.517.291-3.246.364.096 1.074.132 2.151.109 3.229v1.823" fill="#007199"/><path d="M32.717 13.515c-9.484 9.703-19.37 33.541-22.616 49.828 10.834-1.605 28.726-1.824 46.71.383 2.243-15.028 7.441-36.842 15.521-50.503a227.887 227.887 0 0 0-19.169-.82c-6.831-.04-13.659.331-20.446 1.112Z" fill="url(#b)"/><path d="M28.905 7.989c-9.484 9.684-18.603 33.741-21.94 50.029a197.652 197.652 0 0 1 44.41-.474c2.937-17.036 8.591-35.457 17.145-49.829a227.467 227.467 0 0 0-19.15-.82c-6.837-.036-13.67.33-20.465 1.094Z" fill="url(#c)"/><path d="M25.02 4.414c-9.028 9.12-17.947 32.082-21.047 47.585a150.05 150.05 0 0 1 16.907-1.295c-.364-.146 0-1.514 0-1.55a8.718 8.718 0 0 1 3.1-4.287c1.588-1.35.876-2.225 2.098-2.717a39.92 39.92 0 0 0 7.46-4.286c2.918-2.152 3.958-9.612 4.03-9.12.074.493 1.113.238 1.113.694 0 .455.31 1.294.511 1.294.2 0 1.058-2.206 3.046-2.243a5.471 5.471 0 0 1 3.429 1.331l.875-.109.183-.237 1.55-4.231 7.296-8.427c.294-.064.599-.064.893 0a109.664 109.664 0 0 1 6.53-12.767 221.725 221.725 0 0 0-18.567-.802c-6.497-.032-12.99.328-19.443 1.076" fill="url(#d)"/><path d="M37.46 3.119c.182-.146.328 0 .765-.11.803-.164.329 0 .402.53.073.528.583.802 1.13 1.33.548.53 1.168.33 2.718 1.387 1.55 1.058 1.368 1.824 1.167 2.535-.2.711 1.095.912.967 2.262s.128 1.824.82 2.006c.694.182 1.022 1.569 1.496 1.295.475-.274-.273-1.003-.346-1.824-.073-.82.128-1.404.401-1.003.274.401.876.128 1.022.93.201 1.185.525 2.347.966 3.465a11.124 11.124 0 0 0 3.466 1.533c.893.31 1.823-1.04 2.37-1.295.548-.256 1.533-.475 1.952 0 .42.474-.383 1.331-.656 2.735-.274 1.405-1.131 1.15-1.478 1.952-.346.802 0 .857.11.875.11.019.11 0 0 .165-.106.258-.261.493-.456.693-.146.127 0-.475-.256-.748a2.296 2.296 0 0 0-1.112 0 2.535 2.535 0 0 0-2.043 1.258.766.766 0 0 0 .383.985c.365.164.401.237.274.456a24.452 24.452 0 0 1-2.08 3.356c-.984 1.15-1.44 2.608-2.608 3.283-1.167.675-1.35.602-1.35.2 0-.4-.273-.656-.547-.51a.821.821 0 0 1-.875-.2c-.347-.274 0-.602.602-1.405a4.413 4.413 0 0 0 .802-3.648c-.42-.966-1.532-.711-2.316-1.295-.784-.583-1.824-.638-1.933-1.66-.11-1.02.784-1.148 1.824-1.677 1.04-.53 1.35-2.5 1.495-3.885a7.404 7.404 0 0 0-.912-3.648c-.492-1.313-1.076-1.951-1.076-2.17 0-.22.237 0 .2-.165-.036-.164-.382-.638-.382-.474 0 .164-.292.42-.566 0-.273-.42-2.115-3.228-2.662-3.903-.548-.675 0-.456 0-.857a6.986 6.986 0 0 0-1.24-2.189c-.402-.529-.676-.62-.493-.73l.054.165ZM42 33.304c.26-.35.474-.73.64-1.13 0-.238-.639-.165-.694-.767-.054-.602.438-1.149.438-1.477 0-.328-.2-.11-.328-.11a.31.31 0 0 1-.329-.182c0-.255-.4-.346-1.021-.091-.62.255-1.222.985-1.404.967-.183-.019-.493-.93-.493-1.387 0-.456-1.13-.255-1.094-.784.016-.203.085-.398.2-.565 0 0 .11-.128 0-.164-.875-.128-1.513.802-1.933 1.203-.42.402.602 1.952-.456 2.773-1.058.82-1.495.656-1.568 1.058a7.605 7.605 0 0 1-3.083 5.18 36.754 36.754 0 0 1-5.617 4.158c-1.186.51-1.368 2.097-2.9 3.52-1.532 1.422-2.39 4.359-1.605 5.18a2.06 2.06 0 0 0 2.207.437 1.24 1.24 0 0 1 1.13.365c.183.274.985 0 1.387.274.66.423 1.448.597 2.225.492a6.42 6.42 0 0 0 4.304-3.283 14.082 14.082 0 0 0 1.605-5.362 4.395 4.395 0 0 1 2.608-2.553c1.295-.347 1.405-.511 1.824-.274.42.237 1.35.347 1.259-.456-.092-.803-1.204-.529-1.204-1.167 0-.639-.2-1.095.584-1.441.784-.347 1.313-1.423 1.823-2.353.43-.735.93-1.425 1.496-2.06Z" fill="#fff"/><path d="M20.862.823C12.327 9.542 4.01 30.59 1 45.345c4.36-.639 13.661-1.295 20.063-1.46H23.653c.565-.893.93-1.659 1.678-1.987a35.349 35.349 0 0 0 5.636-4.159 7.605 7.605 0 0 0 3.01-5.29c0-.437.51-.218 1.55-1.057s0-2.371.456-2.772c.456-.402 1.04-1.295 1.951-1.204v.164c-.123.164-.193.36-.2.566 0 .528 1.094.328 1.094.784s.31 1.368.492 1.386c.183.018.785-.711 1.405-.967l.237-.091h.328c.631.008 1.253.15 1.824.42.262.183.5.397.711.638 0-.237.256-.584.766-1.186a4.105 4.105 0 0 0 .803-3.556c-.06-.158-.154-.301-.274-.42l-.2-.182c-.511-.274-1.204-.274-1.715-.639-.51-.364-1.824-.656-1.951-1.66-.128-1.002.82-1.148 1.824-1.677 1.003-.53 1.35-2.554 1.477-3.958a7.296 7.296 0 0 0-.912-3.648c-.492-1.295-1.076-1.952-1.076-2.17 0-.22.237 0 .2-.183-.036-.182-.383-.638-.383-.474 0 .164-.291.401-.565 0-.274-.401-2.116-3.192-2.663-3.885-.547-.693 0-.474 0-.857a7.133 7.133 0 0 0-1.185-2.207 4.123 4.123 0 0 0-.456-.53s-.11-.127 0-.163a14.464 14.464 0 0 0-1.55-2.608 1.058 1.058 0 0 0-.384-.31c-5.253-.037-10.724.328-14.719.82Z" fill="url(#e)"/><path d="M24.364 52.674c-.566-.146-.31.346-.292.747.018.402-.2.365-.292.712-.09.346-.237.711-.127.893.109.183.218.183.492-.127s.274-.292.73-.328c.456-.037.638-.128.583-.639a1.642 1.642 0 0 0-1.094-1.258Z" fill="#fff"/><path d="M10.101 63.343c10.834-1.605 28.726-1.824 46.71.383 2.243-15.028 7.441-36.842 15.521-50.503" stroke="url(#f)" stroke-width=".8" stroke-miterlimit="10" stroke-linecap="round"/><path d="M6.964 58.018a197.652 197.652 0 0 1 44.412-.474c2.936-17.036 8.59-35.457 17.144-49.829" stroke="url(#g)" stroke-width=".8" stroke-miterlimit="10" stroke-linecap="round"/><path d="M5.596 45.178c-.602 2.28-1.204 4.76-1.623 6.82a150.05 150.05 0 0 1 16.907-1.294" stroke="url(#h)" stroke-width=".8" stroke-miterlimit="10" stroke-linecap="round"/><path d="M1.036 45.688c4.36-.638 16.963-1.477 23.31-1.641M63.03 4.14a109.68 109.68 0 0 0-6.53 12.767L63.03 4.14Z" stroke="url(#i)" stroke-width=".8" stroke-miterlimit="10" stroke-linecap="round"/><g opacity=".5" stroke-width=".8" stroke-miterlimit="10" stroke-linecap="round"><path d="M3.152 37.207a263.503 263.503 0 0 1 29.474-.985" stroke="url(#j)"/><path d="M44.773 29.31a128.71 128.71 0 0 0-6.748-.511" stroke="url(#k)"/><path d="M5.578 29.674a256.247 256.247 0 0 1 30.678-.93" stroke="url(#l)"/><path d="M8.478 22.105a283.202 283.202 0 0 1 34.654-.839" stroke="url(#m)"/><path d="M12.126 14.482a281.297 281.297 0 0 1 31.68-.84" stroke="url(#n)"/><path d="M16.357 6.967C23.762 6.384 32.535 5.91 39.12 5.91" stroke="url(#o)"/><path d="M42.986 24.44c-.693 1.824-1.331 3.484-1.933 5.162" stroke="url(#p)"/><path d="M41.946 10.816a136.794 136.794 0 0 0-11.07 27.267" stroke="url(#q)"/><path d="M38.408 4.469c-8.919 13.46-14.062 29.62-16.58 39.724" stroke="url(#r)"/><path d="M34.505.219C22.85 14.664 17.269 33.779 14.442 44.52" stroke="url(#s)"/><path d="M27.21.584C15.19 15.466 9.79 34.49 7.145 45.032" stroke="url(#t)"/></g></g><defs><linearGradient id="b" x1="26.188" y1="20.373" x2="68.192" y2="70.42" gradientUnits="userSpaceOnUse"><stop stop-color="#73C8E1"/><stop offset="1" stop-color="#007199"/></linearGradient><linearGradient id="c" x1="22.267" y1="14.409" x2="66.386" y2="67.009" gradientUnits="userSpaceOnUse"><stop stop-color="#75CBC7"/><stop offset="1" stop-color="#008782"/></linearGradient><linearGradient id="d" x1="23.689" y1="14.5" x2="54.549" y2="57.16" gradientUnits="userSpaceOnUse"><stop stop-color="#9DD19A"/><stop offset=".5" stop-color="#06A24A"/><stop offset="1" stop-color="#06A24A"/></linearGradient><linearGradient id="e" x1="10.794" y1="10.964" x2="36.895" y2="51.181" gradientUnits="userSpaceOnUse"><stop stop-color="#9DD19A"/><stop offset="1" stop-color="#06A24A"/></linearGradient><linearGradient id="f" x1="10.065" y1="38.539" x2="72.533" y2="38.539" gradientUnits="userSpaceOnUse"><stop stop-color="#fff"/><stop offset="1" stop-color="#fff"/></linearGradient><linearGradient id="g" x1="5802.46" y1="9573.77" x2="7887.98" y2="9573.77" gradientUnits="userSpaceOnUse"><stop stop-color="#fff"/><stop offset="1" stop-color="#fff"/></linearGradient><linearGradient id="h" x1="1565.88" y1="1401.39" x2="1725.15" y2="1401.39" gradientUnits="userSpaceOnUse"><stop stop-color="#fff"/><stop offset="1" stop-color="#fff"/></linearGradient><linearGradient id="i" x1="5636.27" y1="7724.18" x2="7751.49" y2="7724.18" gradientUnits="userSpaceOnUse"><stop stop-color="#fff"/><stop offset="1" stop-color="#fff"/></linearGradient><linearGradient id="j" x1="2713.57" y1="238.392" x2="3197.24" y2="238.392" gradientUnits="userSpaceOnUse"><stop stop-color="#fff"/><stop offset="1" stop-color="#fff"/></linearGradient><linearGradient id="k" x1="787.634" y1="124.833" x2="814.222" y2="124.833" gradientUnits="userSpaceOnUse"><stop stop-color="#fff"/><stop offset="1" stop-color="#fff"/></linearGradient><linearGradient id="l" x1="2867.5" y1="224.725" x2="3390.86" y2="224.725" gradientUnits="userSpaceOnUse"><stop stop-color="#fff"/><stop offset="1" stop-color="#fff"/></linearGradient><linearGradient id="m" x1="3296.77" y1="211.13" x2="3962.47" y2="211.13" gradientUnits="userSpaceOnUse"><stop stop-color="#fff"/><stop offset="1" stop-color="#fff"/></linearGradient><linearGradient id="n" x1="3079.46" y1="186.953" x2="3637.68" y2="186.953" gradientUnits="userSpaceOnUse"><stop stop-color="#fff"/><stop offset="1" stop-color="#fff"/></linearGradient><linearGradient id="o" x1="2276.86" y1="191.721" x2="2561.15" y2="191.721" gradientUnits="userSpaceOnUse"><stop stop-color="#fff"/><stop offset="1" stop-color="#fff"/></linearGradient><linearGradient id="p" x1="258.995" y1="989.347" x2="261.547" y2="989.347" gradientUnits="userSpaceOnUse"><stop stop-color="#fff"/><stop offset="1" stop-color="#fff"/></linearGradient><linearGradient id="q" x1="1217.13" y1="5069.12" x2="1287.1" y2="5069.12" gradientUnits="userSpaceOnUse"><stop stop-color="#fff"/><stop offset="1" stop-color="#fff"/></linearGradient><linearGradient id="r" x1="1716.21" y1="7371.71" x2="1871.06" y2="7371.71" gradientUnits="userSpaceOnUse"><stop stop-color="#fff"/><stop offset="1" stop-color="#fff"/></linearGradient><linearGradient id="s" x1="1984.2" y1="8168.63" x2="2209.3" y2="8168.63" gradientUnits="userSpaceOnUse"><stop stop-color="#fff"/><stop offset="1" stop-color="#fff"/></linearGradient><linearGradient id="t" x1="1895.45" y1="8207.01" x2="2121.75" y2="8207.01" gradientUnits="userSpaceOnUse"><stop stop-color="#fff"/><stop offset="1" stop-color="#fff"/></linearGradient><clipPath id="a"><path fill="#fff" transform="translate(1)" d="M0 0h274.968v64H0z"/></clipPath></defs></svg>